<?xml version="1.0" encoding="UTF-8" standalone="no"?>
<svg width="692px" height="434px" viewBox="0 0 692 434" version="1.1" xmlns="http://www.w3.org/2000/svg" xmlns:xlink="http://www.w3.org/1999/xlink">
    <!-- Generator: Sketch 39.1 (31720) - http://www.bohemiancoding.com/sketch -->
    <title>Data</title>
    <desc>Created with Sketch.</desc>
    <defs>
        <rect id="path-1" x="120" y="24" width="296" height="335" rx="8"></rect>
        <mask id="mask-2" maskContentUnits="userSpaceOnUse" maskUnits="objectBoundingBox" x="0" y="0" width="296" height="335" fill="white">
            <use xlink:href="#path-1"></use>
        </mask>
    </defs>
    <g id="Page-1" stroke="none" stroke-width="1" fill="none" fill-rule="evenodd">
        <g id="Data" transform="translate(1.000000, 1.000000)">
            <use id="Rectangle-2" stroke="#979797" mask="url(#mask-2)" stroke-width="2" fill="#FEFEFE" xlink:href="#path-1"></use>
            <g id="Group" transform="translate(0.000000, 140.000000)">
                <circle id="Oval" stroke="#979797" fill="#D8D8D8" cx="50" cy="50" r="50"></circle>
                <text id="Human1" font-family="OpenSans-Semibold, Open Sans" font-size="16" font-weight="500" fill="#4A4A4A">
                    <tspan x="17.4804688" y="54">Human1</tspan>
                </text>
            </g>
            <g id="Group-Copy" transform="translate(437.000000, 0.000000)">
                <circle id="Oval" stroke="#979797" fill="#D8D8D8" cx="50" cy="50" r="50"></circle>
                <text id="Animal1" font-family="OpenSans-Semibold, Open Sans" font-size="16" font-weight="500" fill="#4A4A4A">
                    <tspan x="18.8164062" y="54">Animal1</tspan>
                </text>
            </g>
            <g id="Group-Copy-2" transform="translate(437.000000, 144.000000)">
                <circle id="Oval" stroke="#979797" fill="#D8D8D8" cx="50" cy="50" r="50"></circle>
                <text id="Animal2" font-family="OpenSans-Semibold, Open Sans" font-size="16" font-weight="500" fill="#4A4A4A">
                    <tspan x="18.8164062" y="54">Animal2</tspan>
                </text>
            </g>
            <g id="Group-Copy-3" transform="translate(437.000000, 288.000000)">
                <circle id="Oval" stroke="#979797" fill="#D8D8D8" cx="50" cy="50" r="50"></circle>
                <text id="Animal3" font-family="OpenSans-Semibold, Open Sans" font-size="16" font-weight="500" fill="#4A4A4A">
                    <tspan x="18.8164062" y="54">Animal3</tspan>
                </text>
            </g>
            <path d="M140.5,180.5 L396.5,50.5" id="Line" stroke="#979797" stroke-linecap="square"></path>
            <path d="M140.5,190.5 L396.5,193.5" id="Line" stroke="#979797" stroke-linecap="square"></path>
            <path d="M140.5,200.5 L396.5,337.5" id="Line" stroke="#979797" stroke-linecap="square"></path>
            <text id="Edge" font-family="OpenSans-Semibold, Open Sans" font-size="13" font-weight="500" fill="#4990E2">
                <tspan x="145.462402" y="278">Edge</tspan>
            </text>
            <path d="M162.5,104.5 L299.5,253.5" id="Line-Copy-2" stroke="#4990E2" stroke-linecap="square" opacity="0.176364272" transform="translate(231.000000, 179.000000) scale(-1, 1) translate(-231.000000, -179.000000) "></path>
            <path d="M180.5,199.5 L271.5,260.5" id="Line-Copy-2" stroke="#4990E2" stroke-linecap="square" opacity="0.176364272" transform="translate(226.000000, 230.000000) scale(-1, 1) translate(-226.000000, -230.000000) "></path>
            <path d="M189.5,276.5 L265.5,276.5" id="Line-Copy-2" stroke="#4990E2" stroke-linecap="square" opacity="0.176364272" transform="translate(227.500000, 276.500000) scale(-1, 1) translate(-227.500000, -276.500000) "></path>
            <path d="M267,410 L267,373" id="Line-Copy-2" stroke="#4990E2" stroke-linecap="square" opacity="0.176364272" transform="translate(267.000000, 391.500000) scale(-1, 1) translate(-267.000000, -391.500000) "></path>
            <text id="Connection" font-family="OpenSans-Semibold, Open Sans" font-size="13" font-weight="500" fill="#4990E2">
                <tspan x="232.230957" y="432">Connection</tspan>
            </text>
            <path d="M47,292 L47,255" id="Line-Copy-2" stroke="#4990E2" stroke-linecap="square" opacity="0.176364272" transform="translate(47.000000, 273.500000) scale(-1, 1) translate(-47.000000, -273.500000) "></path>
            <text id="Node" font-family="OpenSans-Semibold, Open Sans" font-size="13" font-weight="500" fill="#4990E2">
                <tspan x="31.1437988" y="314">Node</tspan>
            </text>
            <path d="M556.5,164.5 L662.5,49.5" id="Line-Copy-2" stroke="#4990E2" stroke-linecap="square" opacity="0.176364272" transform="translate(609.500000, 107.000000) scale(-1, 1) translate(-609.500000, -107.000000) "></path>
            <path d="M556.5,336.5 L662.5,221.5" id="Line-Copy-2" stroke="#4990E2" stroke-linecap="square" opacity="0.176364272" transform="translate(609.500000, 279.000000) scale(-1, -1) translate(-609.500000, -279.000000) "></path>
            <path d="M556,193 L636,193" id="Line-Copy-2" stroke="#4990E2" stroke-linecap="square" opacity="0.176364272" transform="translate(596.000000, 193.000000) scale(-1, -1) translate(-596.000000, -193.000000) "></path>
            <text id="Node" font-family="OpenSans-Semibold, Open Sans" font-size="13" font-weight="500" fill="#4990E2">
                <tspan x="657.143799" y="198">Node</tspan>
            </text>
        </g>
    </g>
</svg>