<?xml version="1.0" encoding="UTF-8" standalone="no"?>
<svg width="624px" height="369px" viewBox="0 0 624 369" version="1.1" xmlns="http://www.w3.org/2000/svg" xmlns:xlink="http://www.w3.org/1999/xlink">
    <!-- Generator: Sketch 39.1 (31720) - http://www.bohemiancoding.com/sketch -->
    <title>Structure</title>
    <desc>Created with Sketch.</desc>
    <defs>
        <rect id="path-1" x="0" y="78" width="624" height="295" rx="8"></rect>
        <mask id="mask-2" maskContentUnits="userSpaceOnUse" maskUnits="objectBoundingBox" x="0" y="0" width="624" height="295" fill="white">
            <use xlink:href="#path-1"></use>
        </mask>
        <rect id="path-3" x="0" y="0" width="180" height="82" rx="8"></rect>
        <mask id="mask-4" maskContentUnits="userSpaceOnUse" maskUnits="objectBoundingBox" x="0" y="0" width="180" height="82" fill="white">
            <use xlink:href="#path-3"></use>
        </mask>
        <rect id="path-5" x="0" y="0" width="180" height="82" rx="8"></rect>
        <mask id="mask-6" maskContentUnits="userSpaceOnUse" maskUnits="objectBoundingBox" x="0" y="0" width="180" height="82" fill="white">
            <use xlink:href="#path-5"></use>
        </mask>
    </defs>
    <g id="Page-1" stroke="none" stroke-width="1" fill="none" fill-rule="evenodd">
        <g id="Structure" transform="translate(0.000000, -4.000000)">
            <use id="Rectangle-2" stroke="#979797" mask="url(#mask-2)" stroke-width="2" fill="#FEFEFE" xlink:href="#path-1"></use>
            <text id="Model" font-family="OpenSans-Semibold, Open Sans" font-size="13" font-weight="500" fill="#4990E2">
                <tspan x="292.423828" y="144">Model</tspan>
            </text>
            <text id="Pets" font-family="OpenSans-Semibold, Open Sans" font-size="16" font-weight="500" fill="#4A4A4A">
                <tspan x="24" y="119">Pets</tspan>
            </text>
            <g id="Post" transform="translate(24.000000, 193.000000)">
                <use id="Rectangle" stroke="#979797" mask="url(#mask-4)" stroke-width="2" fill="#D8D8D8" xlink:href="#path-3"></use>
                <text id="Human" font-family="OpenSans-Semibold, Open Sans" font-size="16" font-weight="500" fill="#4A4A4A">
                    <tspan x="62.046875" y="45">Human</tspan>
                </text>
            </g>
            <g id="Comment" transform="translate(420.000000, 193.000000)">
                <use id="Rectangle-Copy" stroke="#979797" mask="url(#mask-6)" stroke-width="2" fill="#D8D8D8" xlink:href="#path-5"></use>
                <text id="Animal" font-family="OpenSans-Semibold, Open Sans" font-size="16" font-weight="500" fill="#4A4A4A">
                    <tspan x="62.8828125" y="45">Animal</tspan>
                </text>
            </g>
            <g id="comments" transform="translate(224.000000, 194.000000)">
                <path d="M0.215346766,20 C-7.13254529,20 176,20 176,20" id="Line" stroke="#979797" stroke-linecap="square" fill="#9B9B9B" transform="translate(88.000000, 20.500000) scale(1, -1) translate(-88.000000, -20.500000) "></path>
                <path id="Line-decoration-1" d="M176,20 L165.2,17 L165.2,23 L176,20 Z" stroke="#979797" stroke-linecap="square" fill="#9B9B9B"></path>
                <text id="pets" font-family="OpenSans-Semibold, Open Sans" font-size="13" font-weight="500" fill="#4A4A4A">
                    <tspan x="73.9858398" y="14">pets</tspan>
                </text>
            </g>
            <g id="post" transform="translate(224.000000, 254.000000)">
                <path d="M0.215346766,4.21884749e-15 C-7.13254529,4.21884749e-15 176,4.21884749e-15 176,4.21884749e-15" id="Line-Copy" stroke="#979797" stroke-linecap="square" fill="#9B9B9B" transform="translate(88.000000, 0.500000) scale(-1, -1) translate(-88.000000, -0.500000) "></path>
                <path id="Line-Copy-decoration-1" d="M176,4.21884749e-15 L165.2,-3 L165.2,3 L176,4.21884749e-15 Z" stroke="#979797" stroke-linecap="square" fill="#9B9B9B"></path>
                <text id="owner" font-family="OpenSans-Semibold, Open Sans" font-size="13" font-weight="500" fill="#4A4A4A">
                    <tspan x="68.0461426" y="17">owner</tspan>
                </text>
            </g>
            <text id="Relation" font-family="OpenSans-Semibold, Open Sans" font-size="13" font-weight="500" fill="#4990E2">
                <tspan x="127.053955" y="14">Relation</tspan>
            </text>
            <text id="Field" font-family="OpenSans-Semibold, Open Sans" font-size="13" font-weight="500" fill="#4990E2">
                <tspan x="365.121094" y="341">Field</tspan>
            </text>
            <path d="M279.5,140.5 L153.5,182.5" id="Line" stroke="#4990E2" stroke-linecap="square" opacity="0.176364272"></path>
            <path d="M470.5,140.5 L344.5,182.5" id="Line-Copy-2" stroke="#4990E2" stroke-linecap="square" opacity="0.176364272" transform="translate(407.500000, 161.500000) scale(-1, 1) translate(-407.500000, -161.500000) "></path>
            <path d="M377.5,221.5 L331.5,317.5" id="Line-Copy-2" stroke="#4990E2" stroke-linecap="square" opacity="0.176364272" transform="translate(354.500000, 269.500000) scale(-1, 1) translate(-354.500000, -269.500000) "></path>
            <path d="M362.5,284.5 L311.5,320.5" id="Line-Copy-2" stroke="#4990E2" stroke-linecap="square" opacity="0.176364272" transform="translate(337.000000, 302.500000) scale(-1, 1) translate(-337.000000, -302.500000) "></path>
            <path d="M153.5,30.5 L153.5,65.5" id="Line" stroke="#4990E2" stroke-linecap="square" opacity="0.176364272"></path>
        </g>
    </g>
</svg>